<svg width="24" height="24" viewBox="0 0 24 24" fill="none" xmlns="http://www.w3.org/2000/svg">
<path d="M15.917 16.1316H12" stroke="white"/>
<path d="M7 8.13159H17L21 11.1316V16.1316H19" stroke="white" stroke-linecap="square"/>
<path d="M9 16.1316H7" stroke="white" stroke-linecap="square"/>
<path d="M7 10.1316H3" stroke="white" stroke-linecap="square"/>
<path fill-rule="evenodd" clip-rule="evenodd" d="M10.5 17.1316C9.672 17.1316 9 16.4596 9 15.6316C9 14.8036 9.672 14.1316 10.5 14.1316C11.328 14.1316 12 14.8036 12 15.6316C12 16.4596 11.328 17.1316 10.5 17.1316Z" stroke="white"/>
<path fill-rule="evenodd" clip-rule="evenodd" d="M17.5 17.1316C16.672 17.1316 16 16.4596 16 15.6316C16 14.8036 16.672 14.1316 17.5 14.1316C18.328 14.1316 19 14.8036 19 15.6316C19 16.4596 18.328 17.1316 17.5 17.1316Z" stroke="white"/>
<path d="M4 12.1316H7" stroke="white" stroke-linecap="square"/>
<path d="M5 14.1316H7" stroke="white" stroke-linecap="square"/>
</svg>
